<svg viewBox="-960 -468.5 1920 937" width="1920" height="937" style="background-color: rgb(255, 255, 255);" xmlns="http://www.w3.org/2000/svg"><path d="M-81.6069704988927,107.94926674658774L-166.68516737217928,100.15637031062565M-166.68516737217925,-215.08798161734666L-166.68516737217928,100.15637031062565M-166.68516737217928,100.15637031062565L-256.3290965878011,205.77338791619565M-81.60697049889268,-207.29508518138454L-81.6069704988927,107.94926674658774M-81.6069704988927,107.94926674658774L-171.25089971451447,213.56628435215777" style="fill:none;stroke:rgb(0,0,0);stroke-width:1;stroke-linecap:round"></path><path d="M-81.60697049889268,107.94926674658774L-166.68516737217925,100.15637031062565L-166.68516737217925,-215.08798161734666z" style="fill:rgb(255,136,0); fill-opacity: 0.26"></path><path d="M124.66227316447217,121.09845273511225L22.56844017373275,111.74697731030744M22.56844017373276,-185.51571173563372L22.56844017373275,111.74697731030744M22.56844017373275,111.74697731030744L-61.96216376034909,211.33955833652573M-91.59696725215873,-15.67635803751266L-176.67516412544532,-23.469254473474763M-176.67516412544532,-42.30694672248706L-176.67516412544532,-23.469254473474763M-176.67516412544532,-23.469254473474763L-182.03191275624062,-17.158020468029914M-91.59696725215873,-34.51405028652496L-176.67516412544532,-42.30694672248706M-176.67516412544532,-42.30694672248706L-182.03191275624062,-35.99571271704222" style="fill:none;stroke:rgb(0,0,0);stroke-width:1;stroke-linecap:round"></path><path d="M-81.60697049889266,-207.29508518138454L-81.60697049889268,107.94926674658774L-166.68516737217925,-215.08798161734666z" style="fill:rgb(255,136,0); fill-opacity: 0.26"></path><path d="M-184.59610560149966,-23.434344510792208h11.080332409972193v5.540166204986145h-11.080332409972193z" style="fill:rgb(255,255,255)"></path><path d="M124.66227316447217,-176.16423631082893L124.66227316447217,121.09845273511225M124.66227316447217,121.09845273511225L40.13166923039033,220.6910337613305" style="fill:none;stroke:rgb(0,0,0);stroke-width:1;stroke-linecap:round"></path><path d="M-91.59696725215873,-15.67635803751266L-176.6751641254453,-23.469254473474756L-176.6751641254453,-42.306946722487055zM-176.6751641254453,-42.306946722487055L-176.6751641254453,-23.469254473474756L-182.03191275624062,-35.99571271704222zM-182.03191275624062,-17.158020468029918L-176.6751641254453,-23.469254473474756L-91.59696725215873,-15.67635803751266zM-176.6751641254453,-23.469254473474756L-182.03191275624062,-17.158020468029918L-182.03191275624062,-35.99571271704222z" style="fill:rgb(46,31,255); fill-opacity: 0.73"></path><path d="M-182.03191275624062,-35.99571271704222L-182.03191275624062,-17.158020468029914M-182.03191275624062,-17.158020468029914L-96.95371588295406,-9.365124032067811" style="fill:none;stroke:rgb(0,0,0);stroke-width:1;stroke-linecap:round"></path><path d="M-91.59696725215873,-34.51405028652496L-91.59696725215873,-15.67635803751266L-176.6751641254453,-42.306946722487055z" style="fill:rgb(46,31,255); fill-opacity: 0.73"></path><path d="M-91.59696725215873,-34.51405028652496L-91.59696725215873,-15.67635803751266M-91.59696725215873,-15.67635803751266L-96.95371588295406,-9.365124032067811M-91.59696864317203,-34.514049053704824L-91.59696864317203,-15.676356056149888M-91.59696864317203,-15.676356056149888L-96.95371727396736,-9.36512205070504M-91.59696864317203,-15.676356056149888L10.622677418819775,-10.7329615834897" style="fill:none;stroke:rgb(0,0,0);stroke-width:1;stroke-linecap:round"></path><path d="M-187.57207706305263,-32.48656489599772h11.080332409972193v5.5401662049861615h-11.080332409972193z" style="fill:rgb(255,255,255)"></path><path d="M-182.03191275624062,-35.99571271704222L-96.95371588295406,-28.20281628108011" style="fill:none;stroke:rgb(0,0,0);stroke-width:1;stroke-linecap:round"></path><path d="M124.66227316447217,121.09845273511222L22.568440173732736,111.74697731030744L22.56844017373276,-185.51571173563372z" style="fill:rgb(255,136,0); fill-opacity: 0.26"></path><path d="M-182.03191275624062,-35.99571271704222L-96.95371588295406,-28.202816281080118L-176.6751641254453,-42.306946722487055zM-96.95371588295406,-9.365124032067817L-182.03191275624062,-17.158020468029918L-91.59696725215873,-15.67635803751266zM-96.95371588295406,-28.202816281080118L-91.59696725215873,-34.51405028652496L-176.6751641254453,-42.306946722487055z" style="fill:rgb(46,31,255); fill-opacity: 0.73"></path><path d="M-256.329096587801,205.77338791619565L-166.68516737217925,100.15637031062565L-81.60697049889268,107.94926674658774z" style="fill:rgb(255,136,0); fill-opacity: 0.26"></path><path d="M-81.60697049889268,-207.29508518138454L-166.68516737217925,-215.08798161734666M-166.68516737217925,-215.08798161734666L-256.329096587801,-109.47096401177663M-91.59696725215873,-34.51405028652496L-96.95371588295406,-28.20281628108011M-91.59696864317203,-34.514049053704824L-96.95371727396736,-28.20281504825997M-91.59696864317203,-34.514049053704824L10.622677418819775,-10.7329615834897" style="fill:none;stroke:rgb(0,0,0);stroke-width:1;stroke-linecap:round"></path><path d="M-182.03191275624062,-35.99571271704222L-182.03191275624062,-17.158020468029918L-96.95371588295406,-28.202816281080118z" style="fill:rgb(46,31,255); fill-opacity: 0.73"></path><path d="M-91.59696915033285,-34.514050460391765L-91.59696915033285,-15.676358211379466L-96.95371778112818,-9.365124205934622z" style="fill:rgb(238,255,0); fill-opacity: 0.73"></path><path d="M-96.95371588295406,-9.365124032067817L-91.59696725215873,-15.67635803751266L-91.59696725215873,-34.51405028652496zM-182.03191275624062,-17.158020468029918L-96.95371588295406,-9.365124032067817L-96.95371588295406,-28.202816281080118z" style="fill:rgb(46,31,255); fill-opacity: 0.73"></path><path d="M-91.59696915033285,-34.514050460391765L-96.95371778112818,-9.365124205934622L-96.95371778112818,-28.202816454946923z" style="fill:rgb(238,255,0); fill-opacity: 0.73"></path><path d="M-96.95371588295406,-28.202816281080118L-96.95371588295406,-9.365124032067817L-91.59696725215873,-34.51405028652496z" style="fill:rgb(46,31,255); fill-opacity: 0.73"></path><path d="M-91.59696915033285,-15.676358211379466L-91.59696915033285,-34.514050460391765L10.62267696135235,-10.732963457518782z" style="fill:rgb(238,255,0); fill-opacity: 0.73"></path><path d="M-96.95371588295406,-28.20281628108011L-96.95371588295406,-9.365124032067811M-96.95371727396736,-9.36512205070504L-96.95371727396736,-28.20281504825997M-96.95371727396736,-9.36512205070504L10.622677418819775,-10.7329615834897" style="fill:none;stroke:rgb(0,0,0);stroke-width:1;stroke-linecap:round"></path><path d="M-96.95371778112818,-9.365124205934622L-91.59696915033285,-15.676358211379466L10.62267696135235,-10.732963457518782z" style="fill:rgb(238,255,0); fill-opacity: 0.73"></path><path d="M-96.95371727396736,-28.20281504825997L10.622677418819775,-10.7329615834897" style="fill:none;stroke:rgb(0,0,0);stroke-width:1;stroke-linecap:round"></path><path d="M-91.59696915033285,-34.514050460391765L-96.95371778112818,-28.202816454946923L10.62267696135235,-10.732963457518782z" style="fill:rgb(238,255,0); fill-opacity: 0.73"></path><path d="M-81.60697049889268,-207.29508518138454L-171.25089971451445,-101.67806757581454" style="fill:none;stroke:rgb(0,0,0);stroke-width:1;stroke-linecap:round"></path><path d="M-96.95371778112818,-28.202816454946923L-96.95371778112818,-9.365124205934622L10.62267696135235,-10.732963457518782z" style="fill:rgb(238,255,0); fill-opacity: 0.73"></path><path d="M124.6622731644722,-176.16423631082893L124.66227316447217,121.09845273511222L22.56844017373276,-185.51571173563372zM-171.25089971451445,213.56628435215777L-81.60697049889268,107.94926674658774L-81.60697049889266,-207.29508518138454z" style="fill:rgb(255,136,0); fill-opacity: 0.26"></path><path d="M124.66227316447217,-176.16423631082893L22.56844017373276,-185.51571173563372M22.56844017373276,-185.51571173563372L-61.96216376034908,-85.92313070941543" style="fill:none;stroke:rgb(0,0,0);stroke-width:1;stroke-linecap:round"></path><path d="M-61.96216376034911,211.33955833652573L22.568440173732736,111.74697731030744L124.66227316447217,121.09845273511222zM-166.68516737217925,-215.08798161734666L-166.68516737217925,100.15637031062565L-256.329096587801,-109.47096401177663z" style="fill:rgb(255,136,0); fill-opacity: 0.26"></path><path d="M124.66227316447217,-176.16423631082893L40.131669230390344,-76.57165528461064" style="fill:none;stroke:rgb(0,0,0);stroke-width:1;stroke-linecap:round"></path><path d="M-171.25089971451445,213.56628435215777L-256.329096587801,205.77338791619565L-81.60697049889268,107.94926674658774zM40.13166923039033,220.6910337613305L124.66227316447217,121.09845273511222L124.6622731644722,-176.16423631082893zM-171.25089971451442,-101.67806757581454L-81.60697049889266,-207.29508518138454L-166.68516737217925,-215.08798161734666zM22.56844017373276,-185.51571173563372L22.568440173732736,111.74697731030744L-61.96216376034908,-85.92313070941543zM-166.68516737217925,100.15637031062565L-256.329096587801,205.77338791619565L-256.329096587801,-109.47096401177663z" style="fill:rgb(255,136,0); fill-opacity: 0.26"></path><path d="M-220.2492585626254,-168.48246207923867h11.080332409972193v5.5401662049861935h-11.080332409972193z" style="fill:rgb(255,255,255)"></path><path d="M282.51887207654903,97.24696228533898L225.55347256825974,92.0291100609615M225.55347256825974,-41.445439746978394L225.55347256825974,92.0291100609615M225.55347256825974,92.0291100609615L209.6700184270916,110.74273707780002" style="fill:none;stroke:rgb(0,0,0);stroke-width:1;stroke-linecap:round"></path><path d="M40.13166923039033,220.6910337613305L-61.96216376034911,211.33955833652573L124.66227316447217,121.09845273511222zM40.13166923039036,-76.57165528461066L124.6622731644722,-176.16423631082893L22.56844017373276,-185.51571173563372z" style="fill:rgb(255,136,0); fill-opacity: 0.26"></path><path d="M282.51887207654903,-36.227587522600885L282.51887207654903,97.24696228533898M282.51887207654903,97.24696228533898L266.63541793538093,115.96058930217752" style="fill:none;stroke:rgb(0,0,0);stroke-width:1;stroke-linecap:round"></path><path d="M22.568440173732736,111.74697731030744L-61.96216376034911,211.33955833652573L-61.96216376034908,-85.92313070941543zM282.5188720765491,97.24696228533898L225.55347256825974,92.0291100609615L225.55347256825974,-41.445439746978394z" style="fill:rgb(255,136,0); fill-opacity: 0.26"></path><path d="M111.94699072824208,24.970087986980687L180.967066451544,31.292110806940517" style="fill:none;stroke:rgb(0,0,0);stroke-width:1;stroke-linecap:round"></path><path d="M209.67001842709155,110.74273707780002L225.55347256825974,92.0291100609615L282.5188720765491,97.24696228533898zM-171.25089971451442,-101.67806757581454L-171.25089971451445,213.56628435215777L-81.60697049889266,-207.29508518138454z" style="fill:rgb(255,136,0); fill-opacity: 0.26"></path><path d="M-256.329096587801,-109.47096401177663L-256.3290965878011,205.77338791619565M-256.3290965878011,205.77338791619565L-171.25089971451447,213.56628435215777" style="fill:none;stroke:rgb(0,0,0);stroke-width:1;stroke-linecap:round"></path><path d="M236.45952533254504,105.12296638243154h11.080332409972193v5.540166204986129h-11.080332409972193zM-28.438989624910874,-141.92240217818326h11.080332409972293v5.5401662049861935h-11.080332409972293z" style="fill:rgb(255,255,255)"></path><path d="M282.5188720765491,-36.22758752260089L282.5188720765491,97.24696228533898L225.55347256825974,-41.445439746978394z" style="fill:rgb(255,136,0); fill-opacity: 0.26"></path><path d="M180.25948717119402,32.934264636216774L180.967066451544,33.90845695263667L216.5444250718028,34.55088545640435zM181.40437447945158,28.660213093242675L180.52975842363645,29.690671487619337L216.5444250718028,34.55088545640435zM180.52975842363645,29.690671487619337L180.25948717119402,32.934264636216774L216.5444250718028,34.55088545640435z" style="fill:rgb(0,0,0)"></path><path d="M266.63541793538093,115.96058930217752L209.67001842709155,110.74273707780002L282.5188720765491,97.24696228533898z" style="fill:rgb(255,136,0); fill-opacity: 0.26"></path><path d="M282.51887207654903,-36.227587522600885L225.55347256825974,-41.445439746978394M225.55347256825974,-41.445439746978394L209.6700184270916,-22.731812730139858" style="fill:none;stroke:rgb(0,0,0);stroke-width:1;stroke-linecap:round"></path><path d="M-219.9253590018508,209.69407983019724h11.080332409972193v5.5401662049861935h-11.080332409972193z" style="fill:rgb(255,255,255)"></path><path d="M266.63541793538093,115.96058930217752L282.5188720765491,97.24696228533898L282.5188720765491,-36.22758752260089zM225.55347256825974,-41.445439746978394L225.55347256825974,92.0291100609615L209.67001842709155,-22.731812730139865zM-256.329096587801,-109.47096401177663L-171.25089971451442,-101.67806757581454L-166.68516737217925,-215.08798161734666zM225.55347256825974,92.0291100609615L209.67001842709155,110.74273707780002L209.67001842709155,-22.731812730139865z" style="fill:rgb(255,136,0); fill-opacity: 0.26"></path><path d="M446.2163467801448,87.21466330233487L389.2509472718555,81.99681107795737M389.2509472718555,-1.4247885403461436L389.2509472718555,81.99681107795737M389.2509472718555,81.99681107795737L373.36749313068736,100.7104380947959M209.6700184270916,-22.731812730139858L209.6700184270916,110.74273707780002M209.6700184270916,110.74273707780002L266.63541793538093,115.96058930217752M-171.25089971451445,-101.67806757581454L-171.25089971451447,213.56628435215777M282.51887207654903,-36.227587522600885L266.63541793538093,-17.513960505762366M275.6444654318379,39.96426409879475L344.66454115513983,46.286286918754584" style="fill:none;stroke:rgb(0,0,0);stroke-width:1;stroke-linecap:round"></path><path d="M446.2163467801448,87.21466330233487L389.2509472718556,81.99681107795736L389.2509472718556,-1.42478854034615z" style="fill:rgb(255,136,0); fill-opacity: 0.26"></path><path d="M446.2163467801448,3.7930636840313485L446.2163467801448,87.21466330233487M446.2163467801448,87.21466330233487L430.33289263897666,105.9282903191734M266.63541793538093,-17.513960505762366L266.63541793538093,115.96058930217752" style="fill:none;stroke:rgb(0,0,0);stroke-width:1;stroke-linecap:round"></path><path d="M266.63541793538093,-17.513960505762366L282.5188720765491,-36.22758752260089L225.55347256825974,-41.445439746978394zM373.36749313068736,100.7104380947959L389.2509472718556,81.99681107795736L446.2163467801448,87.21466330233487z" style="fill:rgb(255,136,0); fill-opacity: 0.26"></path><path d="M-61.96216376034908,-85.92313070941543L-61.96216376034909,211.33955833652573M-61.96216376034909,211.33955833652573L40.13166923039033,220.6910337613305" style="fill:none;stroke:rgb(0,0,0);stroke-width:1;stroke-linecap:round"></path><path d="M209.67001842709155,110.74273707780002L266.63541793538093,115.96058930217752L266.63541793538093,-17.513960505762366zM40.13166923039036,-76.57165528461066L40.13166923039033,220.6910337613305L124.6622731644722,-176.16423631082893z" style="fill:rgb(255,136,0); fill-opacity: 0.26"></path><path d="M446.2163467801448,3.7930636840313485L389.2509472718555,-1.4247885403461436M389.2509472718555,-1.4247885403461436L373.36749313068736,17.28883847649239" style="fill:none;stroke:rgb(0,0,0);stroke-width:1;stroke-linecap:round"></path><path d="M446.2163467801448,3.7930636840313485L446.2163467801448,87.21466330233487L389.2509472718556,-1.42478854034615zM266.63541793538093,-17.513960505762366L266.63541793538093,115.96058930217752L282.5188720765491,-36.22758752260089zM-256.329096587801,205.77338791619565L-171.25089971451445,213.56628435215777L-171.25089971451442,-101.67806757581454z" style="fill:rgb(255,136,0); fill-opacity: 0.26"></path><path d="M343.95696187478984,47.928440748030845L344.66454115513983,48.90263306445074L380.24189977539856,49.54506156821841zM345.1018491830474,43.654389205056745L344.22723312723224,44.68484759943341L380.24189977539856,49.54506156821841z" style="fill:rgb(0,0,0)"></path><path d="M209.67001842709155,-22.731812730139865L266.63541793538093,-17.513960505762366L225.55347256825974,-41.445439746978394z" style="fill:rgb(255,136,0); fill-opacity: 0.26"></path><path d="M400.15700003614086,95.09066372548288h11.080332409972193v5.540166204986129h-11.080332409972193z" style="fill:rgb(255,255,255)"></path><path d="M344.22723312723224,44.68484759943341L343.95696187478984,47.928440748030845L380.24189977539856,49.54506156821841z" style="fill:rgb(0,0,0)"></path><path d="M389.2509472718556,-1.42478854034615L389.2509472718556,81.99681107795736L373.36749313068736,17.288838476492383zM209.67001842709155,-22.731812730139865L209.67001842709155,110.74273707780002L266.63541793538093,-17.513960505762366z" style="fill:rgb(255,136,0); fill-opacity: 0.26"></path><path d="M-265.9640149622986,46.13971205573816h11.080332409972193v5.5401662049861615h-11.080332409972193zM-17.05060572036092,216.03952849941172h11.08033240997231v5.5401662049861935h-11.08033240997231z" style="fill:rgb(255,255,255)"></path><path d="M430.3328926389767,105.9282903191734L446.2163467801448,87.21466330233487L446.2163467801448,3.7930636840313485z" style="fill:rgb(255,136,0); fill-opacity: 0.26"></path><path d="M446.2163467801448,3.7930636840313485L430.33289263897666,22.506690700869882" style="fill:none;stroke:rgb(0,0,0);stroke-width:1;stroke-linecap:round"></path><path d="M-61.96216376034908,-85.92313070941543L40.13166923039036,-76.57165528461066L22.56844017373276,-185.51571173563372zM389.2509472718556,81.99681107795736L373.36749313068736,100.7104380947959L373.36749313068736,17.288838476492383zM430.3328926389767,105.9282903191734L373.36749313068736,100.7104380947959L446.2163467801448,87.21466330233487z" style="fill:rgb(255,136,0); fill-opacity: 0.26"></path><path d="M209.6700184270916,-22.731812730139858L266.63541793538093,-17.513960505762366M373.36749313068736,17.28883847649239L373.36749313068736,100.7104380947959M373.36749313068736,100.7104380947959L430.33289263897666,105.9282903191734M40.131669230390344,-76.57165528461064L40.13166923039033,220.6910337613305M609.9138214837407,68.84019896799342L552.9484219754513,63.62234674361593M552.9484219754513,46.93802801762343L552.9484219754513,63.62234674361593M552.9484219754513,63.62234674361593L537.0649678342832,82.33597376045445M439.3419401354336,54.95844021060881L508.3620158587355,61.28046303056865" style="fill:none;stroke:rgb(0,0,0);stroke-width:1;stroke-linecap:round"></path><path d="M430.3328926389767,22.506690700869882L446.2163467801448,3.7930636840313485L389.2509472718556,-1.42478854034615z" style="fill:rgb(255,136,0); fill-opacity: 0.26"></path><path d="M609.9138214837407,52.15588024200093L552.9484219754513,46.93802801762343M552.9484219754513,46.93802801762343L537.0649678342832,65.65165503446197" style="fill:none;stroke:rgb(0,0,0);stroke-width:1;stroke-linecap:round"></path><path d="M609.9138214837407,68.8401989679934L552.9484219754513,63.622346743615914L552.9484219754513,46.93802801762343zM-256.329096587801,-109.47096401177663L-256.329096587801,205.77338791619565L-171.25089971451442,-101.67806757581454zM609.9138214837407,52.155880242000926L609.9138214837407,68.8401989679934L552.9484219754513,46.93802801762343z" style="fill:rgb(255,136,0); fill-opacity: 0.26"></path><path d="M430.33289263897666,22.506690700869882L430.33289263897666,105.9282903191734M609.9138214837407,52.15588024200093L609.9138214837407,68.84019896799342M609.9138214837407,68.84019896799342L594.0303673425724,87.55382598483196" style="fill:none;stroke:rgb(0,0,0);stroke-width:1;stroke-linecap:round"></path><path d="M373.36749313068736,17.288838476492383L430.3328926389767,22.506690700869882L389.2509472718556,-1.42478854034615zM430.3328926389767,22.506690700869882L430.3328926389767,105.9282903191734L446.2163467801448,3.7930636840313485zM373.36749313068736,100.7104380947959L430.3328926389767,105.9282903191734L430.3328926389767,22.506690700869882z" style="fill:rgb(255,136,0); fill-opacity: 0.26"></path><path d="M609.9138214837407,52.15588024200093L594.0303673425724,70.86950725883946" style="fill:none;stroke:rgb(0,0,0);stroke-width:1;stroke-linecap:round"></path><path d="M552.9484219754513,46.93802801762343L552.9484219754513,63.622346743615914L537.0649678342832,65.65165503446197zM537.0649678342832,82.33597376045445L552.9484219754513,63.622346743615914L609.9138214837407,68.8401989679934zM373.36749313068736,17.288838476492383L373.36749313068736,100.7104380947959L430.3328926389767,22.506690700869882z" style="fill:rgb(255,136,0); fill-opacity: 0.26"></path><path d="M507.6544365783855,62.9226168598449L508.3620158587355,63.89680917626478L543.9393744789943,64.53923768003247zM508.79932388664315,58.64856531687079L507.9247078308279,59.67902371124745L543.9393744789943,64.53923768003247zM507.9247078308279,59.67902371124745L507.6544365783855,62.9226168598449L543.9393744789943,64.53923768003247z" style="fill:rgb(0,0,0)"></path><path d="M-61.96216376034911,211.33955833652573L40.13166923039033,220.6910337613305L40.13166923039036,-76.57165528461066z" style="fill:rgb(255,136,0); fill-opacity: 0.26"></path><path d="M-71.5970809885025,60.6967109805652h11.080332409972327v5.540166204986129h-11.080332409972327z" style="fill:rgb(255,255,255)"></path><path d="M373.36749313068736,17.28883847649239L430.33289263897666,22.506690700869882" style="fill:none;stroke:rgb(0,0,0);stroke-width:1;stroke-linecap:round"></path><path d="M594.0303673425725,70.86950725883946L609.9138214837407,52.155880242000926L552.9484219754513,46.93802801762343zM594.0303673425725,87.55382598483195L609.9138214837407,68.8401989679934L609.9138214837407,52.155880242000926z" style="fill:rgb(255,136,0); fill-opacity: 0.26"></path><path d="M563.8544747397364,76.71620147894666h11.080332409972726v5.540166204986129h-11.080332409972726z" style="fill:rgb(255,255,255)"></path><path d="M-256.329096587801,-109.47096401177663L-171.25089971451445,-101.67806757581454" style="fill:none;stroke:rgb(0,0,0);stroke-width:1;stroke-linecap:round"></path><path d="M552.9484219754513,63.622346743615914L537.0649678342832,82.33597376045445L537.0649678342832,65.65165503446197zM594.0303673425725,87.55382598483195L537.0649678342832,82.33597376045445L609.9138214837407,68.8401989679934zM537.0649678342832,65.65165503446197L594.0303673425725,70.86950725883946L552.9484219754513,46.93802801762343zM-61.96216376034908,-85.92313070941543L-61.96216376034911,211.33955833652573L40.13166923039036,-76.57165528461066z" style="fill:rgb(255,136,0); fill-opacity: 0.26"></path><path d="M537.0649678342832,65.65165503446197L537.0649678342832,82.33597376045445M537.0649678342832,82.33597376045445L594.0303673425724,87.55382598483196" style="fill:none;stroke:rgb(0,0,0);stroke-width:1;stroke-linecap:round"></path><path d="M594.0303673425725,70.86950725883946L594.0303673425725,87.55382598483195L609.9138214837407,52.155880242000926z" style="fill:rgb(255,136,0); fill-opacity: 0.26"></path><path d="M537.0649678342832,65.65165503446197L594.0303673425724,70.86950725883946" style="fill:none;stroke:rgb(0,0,0);stroke-width:1;stroke-linecap:round"></path><path d="M537.0649678342832,65.65165503446197L537.0649678342832,82.33597376045445L594.0303673425725,70.86950725883946zM537.0649678342832,82.33597376045445L594.0303673425725,87.55382598483195L594.0303673425725,70.86950725883946z" style="fill:rgb(255,136,0); fill-opacity: 0.26"></path><path d="M594.0303673425724,70.86950725883946L594.0303673425724,87.55382598483196M-61.96216376034908,-85.92313070941543L40.131669230390344,-76.57165528461064" style="fill:none;stroke:rgb(0,0,0);stroke-width:1;stroke-linecap:round"></path></svg>